/* XPM */
static char *b080fbc170e645acbd154827f1499f06jWAOa3W0E6NX3ot7[] = {
/* columns rows colors chars-per-pixel */
"32 32 128 2 ",
"   c #7E4A17",
".  c #8B4716",
"X  c #8B4717",
"o  c #8A4916",
"O  c #8E4A17",
"+  c #8B4C17",
"@  c #8D4C17",
"#  c #8F4D17",
"$  c #894418",
"%  c #8D4719",
"&  c #8C461C",
"*  c #8C4819",
"=  c #8C491A",
"-  c #8A481C",
";  c #8B481F",
":  c #8F491C",
">  c #924E1A",
",  c #904A1C",
"<  c #914C1C",
"1  c #934E1D",
"2  c #93501A",
"3  c #915719",
"4  c #93501C",
"5  c #AF5F26",
"6  c #A86221",
"7  c #AB6722",
"8  c #A96227",
"9  c #AA6327",
"0  c #AA6727",
"q  c #AD6724",
"w  c #AD6727",
"e  c #AF6B22",
"r  c #A86A27",
"t  c #AE6927",
"y  c #A96228",
"u  c #AA652A",
"i  c #AC6429",
"p  c #AE652B",
"a  c #AE672B",
"s  c #AA632C",
"d  c #A8612F",
"f  c #AB662D",
"g  c #A36A2D",
"h  c #AF6929",
"j  c #AE6C29",
"k  c #AF6D29",
"l  c #A9692D",
"z  c #AF682D",
"x  c #AF6A2C",
"c  c #B26324",
"v  c #B06822",
"b  c #B26925",
"n  c #B06B24",
"m  c #B06927",
"M  c #B06D27",
"N  c #B46D27",
"B  c #BA6921",
"V  c #B6662A",
"C  c #B0672C",
"Z  c #B6652E",
"A  c #B8632E",
"S  c #B0682A",
"D  c #B16D2A",
"F  c #B66E2A",
"G  c #B0692C",
"H  c #B46B2C",
"J  c #B56B2F",
"K  c #B26E2C",
"L  c #B06C2E",
"P  c #B66D2D",
"I  c #B76F2D",
"U  c #B86F2F",
"Y  c #B77127",
"T  c #B77029",
"R  c #B4702B",
"E  c #B46333",
"W  c #B06830",
"Q  c #B26A32",
"!  c #B46C30",
"~  c #B56F33",
"^  c #B26936",
"/  c #B56B36",
"(  c #B46D35",
")  c #B66D34",
"_  c #D77C2B",
"`  c #C06535",
"'  c #C7812E",
"]  c #C8842B",
"[  c #C9832C",
"{  c #CB842F",
"}  c #CF872C",
"|  c #CE852F",
" . c #CC862E",
".. c #CF8828",
"X. c #CD8B28",
"o. c #CC892B",
"O. c #CF8C28",
"+. c #CF8A2D",
"@. c #D28A2C",
"#. c #D1892E",
"$. c #D28D2E",
"%. c #D88F2F",
"&. c #CC8531",
"*. c #CF8630",
"=. c #CD8533",
"-. c #CC8632",
";. c #CD8234",
":. c #CE8737",
">. c #CF8A32",
",. c #CF8935",
"<. c #CD8F37",
"1. c #CC823A",
"2. c #CF8638",
"3. c #D78734",
"4. c #D08933",
"5. c #D18B32",
"6. c #D38A32",
"7. c #D58F32",
"8. c #D08835",
"9. c #D18A35",
"0. c #D08A37",
"q. c #D38B36",
"w. c #D08F34",
"e. c #D38C37",
"r. c #D48C37",
"t. c #D79432",
"y. c #D99131",
"u. c #D99138",
/* pixels */
"w.#.%.5 F Z ` c S G _ #.) E r k >.#.7.5 F Z ` c G G _ #.D E z k ",
"3.o.<.g B l   3 9 A R G t k t V w.o.<.g B l   3 i A S J e k t a ",
"G S v S % O b b a C H t w a - @ S C b v . O b w f S ) m 0 a % + ",
"a G 8.:.i F z ;.u.q.6 a z D ) t f S 8.8.9 F H ;.u.8.6 C x k ~ t ",
"i P 4.>.F t x =.X.] e ) a w 7 w S J 8.&.D z ! =.O.[ b ) a 7 9 e ",
"J w t n t i a 8.t.[ F = > ,.8.F J w e e z 0 x 8.t.[ D . > 8.8.F ",
"a a z N D f x a 0 a P . O >.>.6 C a a F M l S S 7 D ) . @ 8.4.7 ",
"S . 1 9 M S t > % ^ Q w t :.>.P S O > 9 v S 0 4 % ^ f t t :.>.P ",
"S O 1 a 4.| t 2 = s i P v t e a x + 1 a >.| b > = a i F b S w t ",
"r D d i y...S 0 0 k D t a z > % 0 x 5 a y.o.z 0 z a v w 0 G > = ",
"z z S T | | a a y J z z a e + o W x t Y | o.z z i K z J S M O o ",
"t n >.' b D b  .7.w.7 t t Q ( i t z >.[ b H t | y.,.r w t z ( s ",
"b z w.8.S Q F #.#.o.b F a a b S t t y.,.b Q F #.X.o.M F i a t z ",
"R z t v y s C 1.4.4.w = > :.[ N z z t z y s a 1.4.4.t - 2 8.[ M ",
"z P 9 k U Q i P n N S = O o.7.w C S 7 D ) ! C U v N z % O #.y.w ",
"8 = > 0 N e a >.| 9 / z k =.[ D 9 < < r b 7 7 4.[ w / z e =.' D ",
"a . , a =.$.c u.>.t i P F t T D C % % x =.@.v 7.8.t 9 P F a M D ",
"D e z F ;.$.t i w F z S i z ; = D v a F ;.6.S C a F 7 a x a & O ",
"z a c b . = v b 9 C G S r a = + G S v b . O v w a C H a t z = + ",
"S S 8.:.a F C ;.u.r.6 f F S / w z G 8.2.9 F H ;.u.q.6 C z D ~ z ",
"a J 8.=.T r D :.o.[ e ) z 7 6 w a J 8.=.D t J =.O.[ b / a 7 0 0 ",
"J w e n z i a ,.t.[ F O > ,.t.D J w e e z i z 8.t.[ D . > >.8.N ",
"f a t F D i S S i D P . @ 8.4.6 a a a F D l D C 7 D ) . O w.6.6 ",
"S o > 9 M S t 1 = ^ a f t ,.=.F S o > 9 v S r 1 O ^ G w t 8.=.U ",
"S @ > a :.| t > = s r F k t 0 a x + 1 a >.| b > % s a F m C 7 b ",
"0 U d 0 y.o.r S t S C b t S 1 % 0 x 5 a y.o.z 0 t z v w 0 C > = ",
"C z t Y | | C Q s J G D a b + o W x t Y | o.z z f K z J x b O o ",
"z e 4.[ v S e | 7.4.0 S w S / x t z >.[ b H t | y.,.r w z x ( s ",
"z t r.8.S ! F #.O.o.v U 9 a t a t t y.,.b Q F #.X.o.M P i a t z ",
"D a t b r i a 1.>.4.e = > 4.[ F z z t z y s a 1.4.4.t = 2 >.[ M ",
"a D 6 F P J a ! c k G % @ #.7.w C S 7 D ) ! C U v N G & O #.7.w ",
"y , < w M 7 w 8. .i / z M =.' N 9 < < r b 7 7 4.[ w / a e =.[ D "
};
