/* XPM */
static char *d40bfeba051f470faf54d84c330e98f1WQlGlAw6K8YM4oge[] = {
/* columns rows colors chars-per-pixel */
"32 32 5 1 ",
"  c black",
". c #77501F",
"X c #CB983E",
"o c #77501F",
"O c #FFFFFFFF",
/* pixels */
"OOOOOOOOOOOOOOOOOOOOOOOOOOOOOOOO",
"OOOOOOOOOOOO        OOOOOOOOOOOO",
"OOOOOOOOOO            OOOOOOOOOO",
"OOOOOOOO                OOOOOOOO",
"OOOOOOO   XX        XX   OOOOOOO",
"OOOOOO   XXX        XXX   OOOOOO",
"OOOOO   XXXX        XXXX   OOOOO",
"OOOO   XXX.X        X.XXX   OOOO",
"OOOO   XX.oX        X..XX   OOOO",
"OOO   XX.XoX        X.X.XX   OOO",
"OOO   XX.XoX        X.X.XX   OOO",
"OO   XX.XXoX        X.XX.XX   OO",
"OO   XX.XXoX        X.XX.XX   OO",
"OO   XX.XXoX        X.XXoXX   OO",
"O   XX.XXoXX        XX.XXoXX   O",
"O   XX.XXoXX        XX.XXoXX   O",
"O   XX.XXoXX        XX.XXoXX   O",
"   XX.XXXoXX        XX.XXXoXX   ",
"   XX.XXXoXX        XX.XXXoXX   ",
"   XX.XXXoXX        XX.XXXoXX   ",
"  XX.XXXXoXX        XX.XXXXoXX  ",
"  XX.XXXXoXX        XX.XXXXoXX  ",
"  XX.XXXoXX          XXoXXXoXX  ",
"  XX.XXXoXX          XXoXXXoXX  ",
"  XX.XXXoXX          XXoXXXoXX  ",
"  XX.XXXoXX          XXoXXXoXX  ",
"  XX.....XX          XXoooooXX  ",
"  XXXXXXXX            XXXXXXXX  ",
"  XXXXXXXX            XXXXXXXX  ",
"                                ",
"                                ",
"                                "
};
