/* XPM */
static char *d40bfeba051f470faf54d84c330e98f1WQlGlAw6K8YM4oge[] = {
/* columns rows colors chars-per-pixel */
"32 32 5 1 ",
"  c black",
". c #77501F",
"X c #CB983E",
"o c #77501F",
"O c #FFFFFFFF",
/* pixels */
"OOOOOOOOOOOOOOOOOOOOOOOOOOOOOOOO",
"OOOOOOOOOOOO        OOOOOOOOOOOO",
"OOOOOOOOOO            OOOOOOOOOO",
"OOOOOOOO                OOOOOOOO",
"OOOOOOO     XX    XX     OOOOOOO",
"OOOOOO   XXXXX    XXXX    OOOOOO",
"OOOOO   XXXXXX    XXXXXX   OOOOO",
"OOOO   XXXX.XX    XX.XXXX   OOOO",
"OOOO   XXX.oXX    XX..XXX   OOOO",
"OOO   XXX.XoXX    XX.X.XXX   OOO",
"OOO   XX.XXoXX    XX.XX.XX   OOO",
"OO   XX.XXXoXX    XX.XXX.XX   OO",
"OO   XX.XXXoXX    XX.XXX.XX   OO",
"OO   XX.XXXoXX    XX.XXXoXX   OO",
"O   XX.XXXXoXX    XX.XXXoXXX   O",
"O   XX.XXXXoXX    XX.XXXXoXX   O",
"O   XX.XXXXoXX    XX.XXXXoXX   O",
"   XX.XXXXXoXX    XX.XXXXXoXX   ",
"   XX.XXXXXoXX    XX.XXXXXoXX   ",
"   X.XXXXXXoXX    XX.XXXXXoXX   ",
"  XX.XXXXXXoXX    XX.XXXXXXoXX  ",
"  XX.XXXXXXoXX    XX.XXXXXXoXX  ",
"  XX.XXXXXXoXX    XXoXXXXXXoXX  ",
"  XX.XXXXXXoXX    XXoXXXXXXoXX  ",
"  XX.XXXXXXoXX    XXoXXXXXXoXX  ",
"  XX.XXXXXXoXX    XXoXXXXXXoXX  ",
"  XX........XX    XXooooooooXX  ",
"  XXXXXXXXXXXX    XXXXXXXXXXXX  ",
"  XXXXXXXXXXXX    XXXXXXXXXXXX  ",
"                                ",
"                                ",
"                                "
};
