/* XPM */
static char *dbaccd5102e04d5ae74177bd7a70c899jnip3jPlEjA4muPX[] = {
/* columns rows colors chars-per-pixel */
"15 27 9 1 ",
"  c black",
". c #A33115",
"X c #FF37911D",
"o c #E98326",
"O c #3839CD",
"+ c #5D5DCE",
"@ c #7D7DF2",
"# c #FF44B4B7",
"$ c gray97",
/* pixels */
"XXXXXXX##$$####",
"XXXXXXX#$$$$###",
"XXXXXXX#$$$ ###",
"#######.$$$ ###",
"######.o$$$ .##",
"#####.oo$$$$o.#",
"#####.ooo$$oo.#",
"#####.oooooooo.",
"#####.oooooooo.",
"######.ooo..oo.",
"#######.oooo.o.",
"### OO #.oooo..",
"#OO $$O  oo...#",
"O@ @@ $ $ o.###",
"  @@+   $ .####",
"+ ++ + ..   ###",
"+   +O.oo.$$ ##",
" ++  $.o.++ ###",
"++O $ .o.. ####",
"OO  ...ooo.####",
"   $.o.ooo.####",
"$$$ .oo...#####",
"        #######",
"### @@@ #######",
"### @@@@  #####",
"### @@@@@$ ####",
"###        ####"
};
