/* XPM */
static char *_6064dfc258d4ab3d9dcb93957f731aakGDnStYIx32NFNOW[] = {
/* columns rows colors chars-per-pixel */
"15 27 9 1 ",
"  c black",
". c #A33115",
"X c #FF37911D",
"o c #E98326",
"O c #3839CD",
"+ c #5D5DCE",
"@ c #7D7DF2",
"# c #FF44B4B7",
"$ c gray97",
/* pixels */
"####$$##XXXXXXX",
"###$$$$#XXXXXXX",
"### $$$#XXXXXXX",
"### $$$.#######",
"##. $$$o.######",
"#.o$$$$oo.#####",
"#.oo$$ooo.#####",
".oooooooo.#####",
".oooooooo.#####",
".oo..ooo.######",
".o.oooo.#######",
"..oooo.# OO ###",
"#...oo  O$$ OO#",
"###.o $ $ @@ @O",
"####. $   +@@  ",
"###   .. + ++ +",
"## $$.oo.O+   +",
"### ++.o.$  ++ ",
"#### ..o. $ O++",
"####.ooo...  OO",
"####.ooo.o.$   ",
"#####...oo. $$$",
"#######        ",
"####### @@@ ###",
"#####  @@@@ ###",
"#### $@@@@@ ###",
"####        ###"
};
