/* XPM */
static char *ea93a634adfa447cfde28e2b53de782atMRbRDtwq58Ai3PY[] = {
/* columns rows colors chars-per-pixel */
"32 32 5 1 ",
"  c black",
". c #505050",
"X c #FFFFFFFF",
"o c #A9A9A9",
"O c #DFE9F4",
/* pixels */
"XXXX                        XXXX",
"XXXX                        XXXX",
"XX  OOOOOOOOOOOOOOOOOOOOoooo  XX",
"XX  OOOOOOOOOOOOOOOOOOOOoooo  XX",
"XX  OOOOOOOOOOOOOOoooooooooooo  ",
"XX  OOOOOOOOOOOOOOoooooooooooo  ",
"  OOOOOOooooOOOOOOoooooooooo..  ",
"  OOOOOOooooOOOOOOoooooooooo..  ",
"  OOOOOOooooOOOOOOoooooooooo..  ",
"  OOOOOOooooOOOOOOoooooooooo..  ",
"  OOOOoooooooooooooooooooooo..  ",
"  OOOOoooooooooooooooooooooo..  ",
"  OOOOooooooOOOOoooooooo......  ",
"  OOOOooooooOOOOoooooooo......  ",
"  OOOOooooooOOOOoooo....oo....  ",
"  OOOOooooooOOOOoooo....oo....  ",
"  ooooooooooOOOOoooo....oo....  ",
"  ooooooooooOOOOoooo....oo....  ",
"  oooo..oooooooooooo..........  ",
"  oooo..oooooooooooo..........  ",
"  oooooooooooooo..............  ",
"  oooooooooooooo..............  ",
"  oooo..OOOO..........oooo....  ",
"  oooo..OOOO..........oooo....  ",
"  ......OOOO..........oooo....  ",
"  ......OOOO..........oooo....  ",
"  ..........................    ",
"  ..........................    ",
"    ......................      ",
"    ......................      ",
"XX                            XX",
"XX                            XX"
};
