/* XPM */
static char *fa71a380dbee4d8bb11287bd235f4d64appQ6qmiwccGInOV[] = {
/* columns rows colors chars-per-pixel */
"32 32 162 2 ",
"   c #000000",
".  c #040A06",
"X  c #130602",
"o  c #0B1E06",
"O  c #081404",
"+  c #040B14",
"@  c #1C1D1D",
"#  c #121B13",
"$  c #371407",
"%  c #0D2209",
"&  c #102B08",
"*  c #13320A",
"=  c #183F0D",
"-  c #1C3A14",
";  c #091933",
":  c #202020",
">  c #3C3C3C",
",  c gray21",
"<  c #53190A",
"1  c #4A2B0B",
"2  c #5A280E",
"3  c #6B260E",
"4  c #623810",
"5  c #7C3F12",
"6  c #563E2D",
"7  c #4F3F39",
"8  c #1A440E",
"9  c #225A12",
"0  c #276614",
"q  c #307E19",
"w  c #2B7216",
"e  c #1C4B33",
"r  c #316E22",
"t  c #2D7722",
"y  c #36512E",
"u  c #6F4A13",
"i  c #7D4514",
"p  c #7F751D",
"a  c #0B1F40",
"s  c #0D254C",
"d  c #0B2043",
"f  c #0F2753",
"g  c #3B3E41",
"h  c #322C48",
"j  c #123165",
"k  c #12336B",
"l  c #153978",
"z  c #184141",
"x  c #3F4155",
"c  c #384665",
"v  c #344C76",
"b  c #4C4F53",
"n  c #464646",
"m  c #62795C",
"M  c #50607D",
"N  c #6E6D6D",
"B  c #717171",
"V  c #9D2F15",
"C  c #AA3C17",
"Z  c #A23415",
"A  c #874A15",
"S  c #935319",
"D  c #A5591C",
"F  c #BF571C",
"G  c #BE6C1F",
"H  c #B7631D",
"J  c #A4432F",
"K  c #A67420",
"L  c #B27B21",
"P  c #C25A1D",
"I  c #D16C21",
"U  c #DD7A24",
"Y  c #D77322",
"T  c #E17F25",
"R  c #AE5541",
"E  c #B25C4D",
"W  c #B96D5C",
"Q  c #947D68",
"!  c #32831A",
"~  c #34891B",
"^  c #3C9C1F",
"/  c #378820",
"(  c #3C9F20",
")  c #3C9E28",
"_  c #3FA421",
"`  c #3EA131",
"'  c #40A822",
"]  c #45AA2B",
"[  c #46B725",
"{  c #4DAC34",
"}  c #52A837",
"|  c #69A624",
" . c #49C127",
".. c #4BC528",
"X. c #4ECC2A",
"o. c #4FD12A",
"O. c #51D62B",
"+. c #54DC2C",
"@. c #5CD23B",
"#. c #56D732",
"$. c #56C138",
"%. c #56E22D",
"&. c #59E72E",
"*. c #59E92F",
"=. c #5FE939",
"-. c #568E46",
";. c #6EBF59",
":. c #59866A",
">. c #749C6B",
",. c #6C9663",
"<. c #65DF44",
"1. c #6AE946",
"2. c #78C465",
"3. c #C18423",
"4. c #D48525",
"5. c #C39527",
"6. c #9F857F",
"7. c #87B37B",
"8. c #84C372",
"9. c #82EC67",
"0. c #93ED7B",
"q. c #FF1A4794",
"w. c #FF1B4A9C",
"e. c #1F4895",
"r. c #1F559C",
"t. c #23498C",
"y. c #1C4EA4",
"u. c #FF1E51AD",
"i. c #1F55B5",
"p. c #FF2052AE",
"a. c #FF2159BB",
"s. c #FF2559B8",
"d. c #FF225CC3",
"f. c #FF2461CA",
"g. c #FF2668DF",
"h. c #FF2666DC",
"j. c #FF2769E3",
"k. c #FF286DEC",
"l. c #FF296FF0",
"z. c #FF2970F0",
"x. c #6293EE",
"c. c #878E8A",
"v. c #B5A182",
"b. c #BCA496",
"n. c #BCBCBC",
"m. c #8FC881",
"M. c #9BCE90",
"N. c #92CA84",
"B. c #A4EF93",
"V. c #ACD4A2",
"C. c #B4D6AA",
"Z. c #EDC8A6",
"A. c #C4E0BF",
"S. c #C7D9C4",
"D. c #D5D5D5",
"F. c #D9EAD7",
"G. c #D6E4D3",
"H. c #E6EBE5",
"J. c #EDEEED",
"K. c #E8E5E5",
"L. c #EAF5E9",
"P. c #F6F6F6",
/* pixels */
"l.l.l.l.l.l.l.l.l.l.l.l.l.l.l.l.l.l.y.y.j.l.l.l.l.l.l.l.l.l.l.l.",
"l.l.l.l.l.l.l.l.l.l.l.l.l.l.l.k.k.a.* & r.j.l.l.l.l.l.l.l.l.l.l.",
"l.l.l.l.l.l.l.l.l.l.l.l.l.l.l.k.f.% *.1.y s.l.l.l.l.l.l.l.l.l.l.",
"l.l.l.l.l.l.l.l.l.l.l.l.l.l.l.d.% *.=.L.J.x.l.z.l.l.l.l.l.l.l.l.",
"l.l.l.l.l.l.l.l.l.l.l.l.l.l.l.d.o *.J.P.g p.z.z.z.z.l.l.l.l.l.l.",
"l.l.l.l.l.l.l.l.l.l.l.l.l.w.+ + o *.P.P., p.k + + + d k.l.l.l.l.",
"l.l.l.l.l.l.l.l.l.l.l.l.q.6 G G L *.P.P.D.:.{ ....[ t s l.l.l.l.",
"l.l.l.l.l.l.l.l.l.l.l.k.l 4 T Y D &.P.P.8.$.#.*.*...! ) s l.l.l.",
"l.l.l.l.l.l.l.l.l.l.l.l.d.c 5 D | *.0.0.@.+.*.*.*.+.[ %.0 j k.k.",
"l.l.l.l.l.l.l.l.l.l.l.l.i.b A K *.*.*.*.*.*.*.*.*.&.*.&.X.  j.l.",
"l.l.l.l.l.l.l.l.l.l.l.l.l 4 4.5.*.*.0.0.0.1.&.&.*.*.*.*.*.  g.k.",
"l.l.l.l.l.l.l.l.l.l.l.l.w.7 H L #.9.P.P.P.B.1.+.*.*.*.&.*.  j.l.",
"l.l.l.l.l.l.l.l.l.l.l.l.l.q.$ S } P.P.P.P.P.7...*.*.*.*.%.  g.l.",
"l.l.l.l.l.l.l.l.l.l.l.l.l.q.1 3.} P.P.P.P.H.>.' %.%.%.+._   g.l.",
"l.l.l.l.l.l.l.l.l.l.l.l.l.q.1 I J P.P.P.P.,.r ! _ _ ( ( ( + j.k.",
"l.l.l.l.l.l.l.l.l.l.l.l.l.q.$ Z J P.P.P.P.J.H.7.! _ ^ 0 O j.k.l.",
"l.l.l.l.l.l.l.l.l.l.l.l.z.g.q.X # } P., @ n.P.H.c.O O # h.l.l.l.",
"l.l.l.l.l.l.l.l.l.l.l.k.z.z.u.% ~ ' P.: y.c > > v s.a.d.l.l.l.l.",
"l.l.l.d.f j l.f f f f i.w.f h ~ @.C.P.@ d.a.y.y.f.z.k.k.l.l.l.l.",
"l.u.k f @ c.k < i i 4 h M m q o.1.P.N t.h.l.l.l.z.z.z.z.l.l.l.l.",
"l.l & w -.K.< V P P C 3 c.V.[ @.B.P.  g.z.z.l.l.l.l.l.l.l.l.l.l.",
"l.l 9 O.<.C.W V V V V R v.M.2.N.P.P.  g.z.z.l.l.l.l.l.l.l.l.l.l.",
"l.w.e ( O.{ S.E E E E b.2.2.G.P.P.n.a j.k.l.l.l.l.l.l.l.l.l.l.l.",
"l.l.q.- { _ _ G.F.F.F.>._ o.2.F.S.  z.z.z.z.l.l.l.l.l.l.l.l.l.l.",
"l.l.w.b S.] ] 0 ' ' ' ! ' %.O._ ^ . j.k.l.l.l.l.l.l.l.l.l.l.l.l.",
"l.l.k.p.g J.J.( %.&.%.^ ~ [ *.&.%._   g.l.l.l.l.l.l.l.l.l.l.l.l.",
"l.l.l.k.s.@ @ 4.4.4.4.U K ( *.*.*.%.  g.l.l.l.l.l.l.l.l.l.l.l.l.",
"l.l.l.l.k.s.  C U T 4.P 1 8 ( *.+.!   g.l.l.l.l.l.l.l.l.l.l.l.l.",
"l.l.l.l.k.g.  I U T T I G u & 8 8 % i.k.l.l.l.l.l.l.l.l.l.l.l.l.",
"l.l.l.l.l.j.  Z.Z.Z.Z.Z.Z.Q ; w.w.w.z.k.l.l.l.l.l.l.l.l.l.l.l.l.",
"l.l.l.l.l.g.  B B B B B B n s z.l.l.k.z.l.l.l.l.l.l.l.l.l.l.l.l.",
"l.l.l.l.l.j.k k k k k k k k q.l.l.l.l.z.l.l.l.l.l.l.l.l.l.l.l.l."
};
